<?xml version="1.0" encoding="utf-8"?>
<!-- Generator: Adobe Illustrator 27.2.0, SVG Export Plug-In . SVG Version: 6.00 Build 0)  -->
<svg version="1.1" id="_x32_" xmlns="http://www.w3.org/2000/svg" xmlns:xlink="http://www.w3.org/1999/xlink" x="0px" y="0px"
	 viewBox="0 0 32 32" style="enable-background:new 0 0 32 32;" xml:space="preserve">
<style type="text/css">
	.st0{fill:#06002A;}
	.st1{fill:#EDE8E4;}
</style>
<path class="st0" d="M24,32H8c-4.4,0-8-3.6-8-8V8c0-4.4,3.6-8,8-8h16c4.4,0,8,3.6,8,8v16C32,28.4,28.4,32,24,32z"/>
<g>
	<g>
		<rect x="22.6" y="6.1" class="st1" width="2.4" height="2.2"/>
		<rect x="22.6" y="13.1" class="st1" width="2.4" height="12.8"/>
		<rect x="20.5" y="9.3" class="st1" width="6.3" height="2.7"/>
	</g>
	<g>
		<rect x="15.1" y="6.1" class="st1" width="2.4" height="11.8"/>
		<rect x="15.1" y="22.7" class="st1" width="2.4" height="3.2"/>
		<rect x="13.1" y="19" class="st1" width="6.3" height="2.7"/>
	</g>
	<g>
		<rect x="7.2" y="18.2" class="st1" width="2.4" height="7.7"/>
		<rect x="7.2" y="6.1" class="st1" width="2.4" height="7.4"/>
		<rect x="5.1" y="14.4" class="st1" width="6.3" height="2.7"/>
	</g>
</g>
</svg>
