<?xml version="1.0" encoding="utf-8"?>
<!-- Generator: Adobe Illustrator 27.2.0, SVG Export Plug-In . SVG Version: 6.00 Build 0)  -->
<svg version="1.1" id="_x32_" xmlns="http://www.w3.org/2000/svg" xmlns:xlink="http://www.w3.org/1999/xlink" x="0px" y="0px"
	 viewBox="0 0 32 32" style="enable-background:new 0 0 32 32;" xml:space="preserve">
<style type="text/css">
	.st0{fill:#B0E6ED;}
	.st1{fill:#A67E67;}
	.st2{fill:#FFC58B;}
	.st3{fill:#A33E00;}
</style>
<path class="st0" d="M20,32h-8C5.4,32,0,26.6,0,20l0-8C0,5.4,5.4,0,12,0l8,0c6.6,0,12,5.4,12,12v8C32,26.6,26.6,32,20,32z"/>
<g>
	<rect x="24.2" y="4.7" class="st1" width="2.3" height="2.5"/>
	<rect x="24.2" y="12.7" class="st1" width="2.3" height="14.6"/>
	<rect x="22.2" y="8.4" class="st1" width="6.2" height="3.1"/>
</g>
<g>
	<rect x="14.8" y="4.7" class="st2" width="2.3" height="13.5"/>
	<rect x="14.8" y="23.6" class="st2" width="2.3" height="3.7"/>
	<rect x="12.9" y="19.4" class="st2" width="6.2" height="3.1"/>
</g>
<g>
	<rect x="5.5" y="18.5" class="st3" width="2.3" height="8.8"/>
	<rect x="5.5" y="4.7" class="st3" width="2.3" height="8.4"/>
	<rect x="3.5" y="14.2" class="st3" width="6.2" height="3.1"/>
</g>
</svg>
